<svg width="251" height="124" viewBox="0 0 251 124" fill="none" xmlns="http://www.w3.org/2000/svg">
<path d="M24.3 96.2C20.0333 96.2 16.2333 95.1333 12.9 93C9.63333 90.8667 7.06667 87.8333 5.2 83.9C3.33333 79.9 2.4 75.2 2.4 69.8C2.4 64.4 3.33333 59.8 5.2 56C7.06667 52.1333 9.63333 49.1667 12.9 47.1C16.2333 45.0333 20.0333 44 24.3 44C27.0333 44 29.8333 44.7 32.7 46.1C35.5667 47.4333 37.8 49.4667 39.4 52.2V28.2H54.6V75.6C54.6 78.0667 54.7 81 54.9 84.4C55.1667 87.8 55.6333 91.3333 56.3 95H41.8L39.8 88.3C37.7333 91.1667 35.3 93.2 32.5 94.4C29.7667 95.6 27.0333 96.2 24.3 96.2ZM29.2 84.4C32.1333 84.4 34.6667 83.3 36.8 81.1C39 78.9 40.1 75.2333 40.1 70.1C40.1 65.0333 39 61.4 36.8 59.2C34.6667 56.9333 32.1333 55.8 29.2 55.8C26.2 55.8 23.6 57 21.4 59.4C19.2667 61.8 18.2 65.2667 18.2 69.8C18.2 74.4 19.2667 78 21.4 80.6C23.6 83.1333 26.2 84.4 29.2 84.4ZM85.2703 96.2C80.6703 96.2 76.3703 95.2667 72.3703 93.4C68.3703 91.5333 65.137 88.6667 62.6703 84.8C60.2036 80.8667 58.9703 75.9333 58.9703 70C58.9703 64 60.2036 59.1 62.6703 55.3C65.137 51.4333 68.3703 48.6 72.3703 46.8C76.3703 44.9333 80.6703 44 85.2703 44C89.8036 44 94.0703 44.9333 98.0703 46.8C102.07 48.6 105.304 51.4333 107.77 55.3C110.237 59.1 111.47 64 111.47 70C111.47 75.9333 110.237 80.8667 107.77 84.8C105.304 88.6667 102.07 91.5333 98.0703 93.4C94.0703 95.2667 89.8036 96.2 85.2703 96.2ZM85.2703 84.4C88.337 84.4 90.8703 83.3 92.8703 81.1C94.937 78.9 95.9703 75.2 95.9703 70C95.9703 64.7333 94.9036 61.0667 92.7703 59C90.7036 56.8667 88.2036 55.8 85.2703 55.8C82.2703 55.8 79.7036 56.8667 77.5703 59C75.5036 61.0667 74.4703 64.7333 74.4703 70C74.4703 75.2 75.5036 78.9 77.5703 81.1C79.637 83.3 82.2036 84.4 85.2703 84.4ZM138.695 96.2C133.228 96.2 128.595 95.1 124.795 92.9C121.061 90.7 118.195 87.6333 116.195 83.7C114.261 79.7 113.295 75.1 113.295 69.9C113.295 64.7 114.361 60.1667 116.495 56.3C118.628 52.3667 121.595 49.3333 125.395 47.2C129.261 45.0667 133.695 44 138.695 44C141.561 44 144.395 44.4 147.195 45.2C150.061 46 152.695 47.3667 155.095 49.3C157.561 51.1667 159.561 53.7333 161.095 57L148.395 61.6C147.595 59.4667 146.395 57.9667 144.795 57.1C143.261 56.2333 141.528 55.8 139.595 55.8C137.795 55.8 136.061 56.2667 134.395 57.2C132.728 58.0667 131.361 59.5333 130.295 61.6C129.295 63.6667 128.795 66.4667 128.795 70C128.795 73.6 129.328 76.4667 130.395 78.6C131.461 80.6667 132.795 82.1667 134.395 83.1C136.061 83.9667 137.795 84.4 139.595 84.4C141.728 84.4 143.528 84 144.995 83.2C146.461 82.3333 147.628 81.1667 148.495 79.7L160.895 84.2C159.228 87.2 157.161 89.6 154.695 91.4C152.228 93.1333 149.595 94.3667 146.795 95.1C144.061 95.8333 141.361 96.2 138.695 96.2ZM185.748 95C181.681 95 178.448 94.6667 176.048 94C173.648 93.2667 171.914 91.9 170.848 89.9C169.848 87.8333 169.348 84.8667 169.348 81V57H161.148V45.4H169.348V33H184.548V45.4H195.348V57H184.548V77C184.548 79.3333 184.981 80.8667 185.848 81.6C186.781 82.2667 188.481 82.6 190.948 82.6H195.348V95H185.748ZM214.238 96.2C211.105 96.2 208.238 95.6 205.638 94.4C203.038 93.2 200.972 91.5333 199.438 89.4C197.905 87.2 197.138 84.6 197.138 81.6C197.138 77.5333 198.538 74.3 201.338 71.9C204.205 69.5 208.105 67.7 213.038 66.5C217.972 65.3 223.638 64.4667 230.038 64C230.038 60.4667 229.472 57.9667 228.338 56.5C227.205 55.0333 225.005 54.3 221.738 54.3C219.672 54.3 217.838 54.8 216.238 55.8C214.705 56.7333 213.672 58.2 213.138 60.2L200.338 55.6C202.005 52.2667 204.772 49.5 208.638 47.3C212.572 45.1 217.372 44 223.038 44C230.105 44 235.538 45.5667 239.338 48.7C243.138 51.8333 245.038 57.1667 245.038 64.7V75.6C245.038 77.7333 245.105 80.0333 245.238 82.5C245.372 84.9667 245.572 87.3 245.838 89.5C246.105 91.7 246.405 93.5333 246.738 95H232.638L230.838 89C228.972 91.6 226.605 93.4667 223.738 94.6C220.938 95.6667 217.772 96.2 214.238 96.2ZM219.838 85.8C222.838 85.8 225.338 85 227.338 83.4C229.338 81.8 230.338 78.7333 230.338 74.2V73C225.072 73.4667 220.838 74.2 217.638 75.2C214.438 76.1333 212.838 77.9 212.838 80.5C212.838 82.1 213.505 83.4 214.838 84.4C216.172 85.3333 217.838 85.8 219.838 85.8Z" fill="white"/>
</svg>
