<svg width="157" height="44" viewBox="0 0 157 44" fill="none" xmlns="http://www.w3.org/2000/svg">
<path d="M14.552 43.768C11.8213 43.768 9.38933 43.0853 7.256 41.72C5.16533 40.3547 3.52267 38.4133 2.328 35.896C1.13333 33.336 0.536 30.328 0.536 26.872C0.536 23.416 1.13333 20.472 2.328 18.04C3.52267 15.5653 5.16533 13.6667 7.256 12.344C9.38933 11.0213 11.8213 10.36 14.552 10.36C16.3013 10.36 18.0933 10.808 19.928 11.704C21.7627 12.5573 23.192 13.8587 24.216 15.608V0.247997H33.944V30.584C33.944 32.1627 34.008 34.04 34.136 36.216C34.3067 38.392 34.6053 40.6533 35.032 43H25.752L24.472 38.712C23.1493 40.5467 21.592 41.848 19.8 42.616C18.0507 43.384 16.3013 43.768 14.552 43.768ZM17.688 36.216C19.5653 36.216 21.1867 35.512 22.552 34.104C23.96 32.696 24.664 30.3493 24.664 27.064C24.664 23.8213 23.96 21.496 22.552 20.088C21.1867 18.6373 19.5653 17.912 17.688 17.912C15.768 17.912 14.104 18.68 12.696 20.216C11.3307 21.752 10.648 23.9707 10.648 26.872C10.648 29.816 11.3307 32.12 12.696 33.784C14.104 35.4053 15.768 36.216 17.688 36.216ZM53.573 43.768C50.629 43.768 47.877 43.1707 45.317 41.976C42.757 40.7813 40.6877 38.9467 39.109 36.472C37.5303 33.9547 36.741 30.7973 36.741 27C36.741 23.16 37.5303 20.024 39.109 17.592C40.6877 15.1173 42.757 13.304 45.317 12.152C47.877 10.9573 50.629 10.36 53.573 10.36C56.4743 10.36 59.205 10.9573 61.765 12.152C64.325 13.304 66.3943 15.1173 67.973 17.592C69.5517 20.024 70.341 23.16 70.341 27C70.341 30.7973 69.5517 33.9547 67.973 36.472C66.3943 38.9467 64.325 40.7813 61.765 41.976C59.205 43.1707 56.4743 43.768 53.573 43.768ZM53.573 36.216C55.5357 36.216 57.157 35.512 58.437 34.104C59.7597 32.696 60.421 30.328 60.421 27C60.421 23.6293 59.7383 21.2827 58.373 19.96C57.0503 18.5947 55.4503 17.912 53.573 17.912C51.653 17.912 50.0103 18.5947 48.645 19.96C47.3223 21.2827 46.661 23.6293 46.661 27C46.661 30.328 47.3223 32.696 48.645 34.104C49.9677 35.512 51.6103 36.216 53.573 36.216ZM87.7645 43.768C84.2658 43.768 81.3005 43.064 78.8685 41.656C76.4792 40.248 74.6445 38.2853 73.3645 35.768C72.1272 33.208 71.5085 30.264 71.5085 26.936C71.5085 23.608 72.1912 20.7067 73.5565 18.232C74.9218 15.7147 76.8205 13.7733 79.2525 12.408C81.7272 11.0427 84.5645 10.36 87.7645 10.36C89.5992 10.36 91.4125 10.616 93.2045 11.128C95.0392 11.64 96.7245 12.5147 98.2605 13.752C99.8392 14.9467 101.119 16.5893 102.101 18.68L93.9725 21.624C93.4605 20.2587 92.6925 19.2987 91.6685 18.744C90.6872 18.1893 89.5778 17.912 88.3405 17.912C87.1885 17.912 86.0792 18.2107 85.0125 18.808C83.9458 19.3627 83.0712 20.3013 82.3885 21.624C81.7485 22.9467 81.4285 24.7387 81.4285 27C81.4285 29.304 81.7698 31.1387 82.4525 32.504C83.1352 33.8267 83.9885 34.7867 85.0125 35.384C86.0792 35.9387 87.1885 36.216 88.3405 36.216C89.7058 36.216 90.8578 35.96 91.7965 35.448C92.7352 34.8933 93.4818 34.1467 94.0365 33.208L101.973 36.088C100.906 38.008 99.5832 39.544 98.0045 40.696C96.4258 41.8053 94.7405 42.5947 92.9485 43.064C91.1992 43.5333 89.4712 43.768 87.7645 43.768ZM117.878 43C115.276 43 113.206 42.7867 111.67 42.36C110.134 41.8907 109.025 41.016 108.342 39.736C107.702 38.4133 107.382 36.5147 107.382 34.04V18.68H102.134V11.256H107.382V3.32H117.11V11.256H124.022V18.68H117.11V31.48C117.11 32.9733 117.388 33.9547 117.942 34.424C118.54 34.8507 119.628 35.064 121.206 35.064H124.022V43H117.878ZM136.113 43.768C134.107 43.768 132.272 43.384 130.609 42.616C128.944 41.848 127.622 40.7813 126.64 39.416C125.659 38.008 125.168 36.344 125.168 34.424C125.168 31.8213 126.064 29.752 127.856 28.216C129.691 26.68 132.187 25.528 135.345 24.76C138.502 23.992 142.128 23.4587 146.225 23.16C146.225 20.8987 145.862 19.2987 145.137 18.36C144.411 17.4213 143.003 16.952 140.913 16.952C139.59 16.952 138.417 17.272 137.392 17.912C136.411 18.5093 135.75 19.448 135.409 20.728L127.216 17.784C128.283 15.6507 130.054 13.88 132.529 12.472C135.046 11.064 138.118 10.36 141.745 10.36C146.267 10.36 149.745 11.3627 152.177 13.368C154.609 15.3733 155.825 18.7867 155.825 23.608V30.584C155.825 31.9493 155.867 33.4213 155.952 35C156.038 36.5787 156.166 38.072 156.337 39.48C156.507 40.888 156.699 42.0613 156.913 43H147.889L146.737 39.16C145.542 40.824 144.027 42.0187 142.193 42.744C140.401 43.4267 138.374 43.768 136.113 43.768ZM139.697 37.112C141.617 37.112 143.216 36.6 144.497 35.576C145.777 34.552 146.417 32.5893 146.417 29.688V28.92C143.046 29.2187 140.337 29.688 138.289 30.328C136.241 30.9253 135.217 32.056 135.217 33.72C135.217 34.744 135.643 35.576 136.497 36.216C137.35 36.8133 138.417 37.112 139.697 37.112Z" fill="white"/>
</svg>
