<svg width="161" height="79" viewBox="0 0 161 79" fill="none" xmlns="http://www.w3.org/2000/svg">
<path d="M15.552 61.768C12.8213 61.768 10.3893 61.0853 8.256 59.72C6.16533 58.3547 4.52267 56.4133 3.328 53.896C2.13333 51.336 1.536 48.328 1.536 44.872C1.536 41.416 2.13333 38.472 3.328 36.04C4.52267 33.5653 6.16533 31.6667 8.256 30.344C10.3893 29.0213 12.8213 28.36 15.552 28.36C17.3013 28.36 19.0933 28.808 20.928 29.704C22.7627 30.5573 24.192 31.8587 25.216 33.608V18.248H34.944V48.584C34.944 50.1627 35.008 52.04 35.136 54.216C35.3067 56.392 35.6053 58.6533 36.032 61H26.752L25.472 56.712C24.1493 58.5467 22.592 59.848 20.8 60.616C19.0507 61.384 17.3013 61.768 15.552 61.768ZM18.688 54.216C20.5653 54.216 22.1867 53.512 23.552 52.104C24.96 50.696 25.664 48.3493 25.664 45.064C25.664 41.8213 24.96 39.496 23.552 38.088C22.1867 36.6373 20.5653 35.912 18.688 35.912C16.768 35.912 15.104 36.68 13.696 38.216C12.3307 39.752 11.648 41.9707 11.648 44.872C11.648 47.816 12.3307 50.12 13.696 51.784C15.104 53.4053 16.768 54.216 18.688 54.216ZM54.573 61.768C51.629 61.768 48.877 61.1707 46.317 59.976C43.757 58.7813 41.6877 56.9467 40.109 54.472C38.5303 51.9547 37.741 48.7973 37.741 45C37.741 41.16 38.5303 38.024 40.109 35.592C41.6877 33.1173 43.757 31.304 46.317 30.152C48.877 28.9573 51.629 28.36 54.573 28.36C57.4743 28.36 60.205 28.9573 62.765 30.152C65.325 31.304 67.3943 33.1173 68.973 35.592C70.5517 38.024 71.341 41.16 71.341 45C71.341 48.7973 70.5517 51.9547 68.973 54.472C67.3943 56.9467 65.325 58.7813 62.765 59.976C60.205 61.1707 57.4743 61.768 54.573 61.768ZM54.573 54.216C56.5357 54.216 58.157 53.512 59.437 52.104C60.7597 50.696 61.421 48.328 61.421 45C61.421 41.6293 60.7383 39.2827 59.373 37.96C58.0503 36.5947 56.4503 35.912 54.573 35.912C52.653 35.912 51.0103 36.5947 49.645 37.96C48.3223 39.2827 47.661 41.6293 47.661 45C47.661 48.328 48.3223 50.696 49.645 52.104C50.9677 53.512 52.6103 54.216 54.573 54.216ZM88.7645 61.768C85.2658 61.768 82.3005 61.064 79.8685 59.656C77.4792 58.248 75.6445 56.2853 74.3645 53.768C73.1272 51.208 72.5085 48.264 72.5085 44.936C72.5085 41.608 73.1912 38.7067 74.5565 36.232C75.9218 33.7147 77.8205 31.7733 80.2525 30.408C82.7272 29.0427 85.5645 28.36 88.7645 28.36C90.5992 28.36 92.4125 28.616 94.2045 29.128C96.0392 29.64 97.7245 30.5147 99.2605 31.752C100.839 32.9467 102.119 34.5893 103.101 36.68L94.9725 39.624C94.4605 38.2587 93.6925 37.2987 92.6685 36.744C91.6872 36.1893 90.5778 35.912 89.3405 35.912C88.1885 35.912 87.0792 36.2107 86.0125 36.808C84.9458 37.3627 84.0712 38.3013 83.3885 39.624C82.7485 40.9467 82.4285 42.7387 82.4285 45C82.4285 47.304 82.7698 49.1387 83.4525 50.504C84.1352 51.8267 84.9885 52.7867 86.0125 53.384C87.0792 53.9387 88.1885 54.216 89.3405 54.216C90.7058 54.216 91.8578 53.96 92.7965 53.448C93.7352 52.8933 94.4818 52.1467 95.0365 51.208L102.973 54.088C101.906 56.008 100.583 57.544 99.0045 58.696C97.4258 59.8053 95.7405 60.5947 93.9485 61.064C92.1992 61.5333 90.4712 61.768 88.7645 61.768ZM118.878 61C116.276 61 114.206 60.7867 112.67 60.36C111.134 59.8907 110.025 59.016 109.342 57.736C108.702 56.4133 108.382 54.5147 108.382 52.04V36.68H103.134V29.256H108.382V21.32H118.11V29.256H125.022V36.68H118.11V49.48C118.11 50.9733 118.388 51.9547 118.942 52.424C119.54 52.8507 120.628 53.064 122.206 53.064H125.022V61H118.878ZM137.113 61.768C135.107 61.768 133.272 61.384 131.609 60.616C129.944 59.848 128.622 58.7813 127.64 57.416C126.659 56.008 126.168 54.344 126.168 52.424C126.168 49.8213 127.064 47.752 128.856 46.216C130.691 44.68 133.187 43.528 136.345 42.76C139.502 41.992 143.128 41.4587 147.225 41.16C147.225 38.8987 146.862 37.2987 146.137 36.36C145.411 35.4213 144.003 34.952 141.913 34.952C140.59 34.952 139.417 35.272 138.392 35.912C137.411 36.5093 136.75 37.448 136.409 38.728L128.216 35.784C129.283 33.6507 131.054 31.88 133.529 30.472C136.046 29.064 139.118 28.36 142.745 28.36C147.267 28.36 150.745 29.3627 153.177 31.368C155.609 33.3733 156.825 36.7867 156.825 41.608V48.584C156.825 49.9493 156.867 51.4213 156.952 53C157.038 54.5787 157.166 56.072 157.337 57.48C157.507 58.888 157.699 60.0613 157.913 61H148.889L147.737 57.16C146.542 58.824 145.027 60.0187 143.193 60.744C141.401 61.4267 139.374 61.768 137.113 61.768ZM140.697 55.112C142.617 55.112 144.216 54.6 145.497 53.576C146.777 52.552 147.417 50.5893 147.417 47.688V46.92C144.046 47.2187 141.337 47.688 139.289 48.328C137.241 48.9253 136.217 50.056 136.217 51.72C136.217 52.744 136.643 53.576 137.497 54.216C138.35 54.8133 139.417 55.112 140.697 55.112Z" fill="white"/>
</svg>
