<svg width="245" height="69" viewBox="0 0 245 69" fill="none" xmlns="http://www.w3.org/2000/svg">
<path d="M22.3 68.2C18.0333 68.2 14.2333 67.1333 10.9 65C7.63333 62.8667 5.06667 59.8333 3.2 55.9C1.33333 51.9 0.4 47.2 0.4 41.8C0.4 36.4 1.33333 31.8 3.2 28C5.06667 24.1333 7.63333 21.1667 10.9 19.1C14.2333 17.0333 18.0333 16 22.3 16C25.0333 16 27.8333 16.7 30.7 18.1C33.5667 19.4333 35.8 21.4667 37.4 24.2V0.199996H52.6V47.6C52.6 50.0667 52.7 53 52.9 56.4C53.1667 59.8 53.6333 63.3333 54.3 67H39.8L37.8 60.3C35.7333 63.1667 33.3 65.2 30.5 66.4C27.7667 67.6 25.0333 68.2 22.3 68.2ZM27.2 56.4C30.1333 56.4 32.6667 55.3 34.8 53.1C37 50.9 38.1 47.2333 38.1 42.1C38.1 37.0333 37 33.4 34.8 31.2C32.6667 28.9333 30.1333 27.8 27.2 27.8C24.2 27.8 21.6 29 19.4 31.4C17.2667 33.8 16.2 37.2667 16.2 41.8C16.2 46.4 17.2667 50 19.4 52.6C21.6 55.1333 24.2 56.4 27.2 56.4ZM83.2703 68.2C78.6703 68.2 74.3703 67.2667 70.3703 65.4C66.3703 63.5333 63.137 60.6667 60.6703 56.8C58.2036 52.8667 56.9703 47.9333 56.9703 42C56.9703 36 58.2036 31.1 60.6703 27.3C63.137 23.4333 66.3703 20.6 70.3703 18.8C74.3703 16.9333 78.6703 16 83.2703 16C87.8036 16 92.0703 16.9333 96.0703 18.8C100.07 20.6 103.304 23.4333 105.77 27.3C108.237 31.1 109.47 36 109.47 42C109.47 47.9333 108.237 52.8667 105.77 56.8C103.304 60.6667 100.07 63.5333 96.0703 65.4C92.0703 67.2667 87.8036 68.2 83.2703 68.2ZM83.2703 56.4C86.337 56.4 88.8703 55.3 90.8703 53.1C92.937 50.9 93.9703 47.2 93.9703 42C93.9703 36.7333 92.9036 33.0667 90.7703 31C88.7036 28.8667 86.2036 27.8 83.2703 27.8C80.2703 27.8 77.7036 28.8667 75.5703 31C73.5036 33.0667 72.4703 36.7333 72.4703 42C72.4703 47.2 73.5036 50.9 75.5703 53.1C77.637 55.3 80.2036 56.4 83.2703 56.4ZM136.695 68.2C131.228 68.2 126.595 67.1 122.795 64.9C119.061 62.7 116.195 59.6333 114.195 55.7C112.261 51.7 111.295 47.1 111.295 41.9C111.295 36.7 112.361 32.1667 114.495 28.3C116.628 24.3667 119.595 21.3333 123.395 19.2C127.261 17.0667 131.695 16 136.695 16C139.561 16 142.395 16.4 145.195 17.2C148.061 18 150.695 19.3667 153.095 21.3C155.561 23.1667 157.561 25.7333 159.095 29L146.395 33.6C145.595 31.4667 144.395 29.9667 142.795 29.1C141.261 28.2333 139.528 27.8 137.595 27.8C135.795 27.8 134.061 28.2667 132.395 29.2C130.728 30.0667 129.361 31.5333 128.295 33.6C127.295 35.6667 126.795 38.4667 126.795 42C126.795 45.6 127.328 48.4667 128.395 50.6C129.461 52.6667 130.795 54.1667 132.395 55.1C134.061 55.9667 135.795 56.4 137.595 56.4C139.728 56.4 141.528 56 142.995 55.2C144.461 54.3333 145.628 53.1667 146.495 51.7L158.895 56.2C157.228 59.2 155.161 61.6 152.695 63.4C150.228 65.1333 147.595 66.3667 144.795 67.1C142.061 67.8333 139.361 68.2 136.695 68.2ZM183.748 67C179.681 67 176.448 66.6667 174.048 66C171.648 65.2667 169.914 63.9 168.848 61.9C167.848 59.8333 167.348 56.8667 167.348 53V29H159.148V17.4H167.348V5H182.548V17.4H193.348V29H182.548V49C182.548 51.3333 182.981 52.8667 183.848 53.6C184.781 54.2667 186.481 54.6 188.948 54.6H193.348V67H183.748ZM212.238 68.2C209.105 68.2 206.238 67.6 203.638 66.4C201.038 65.2 198.972 63.5333 197.438 61.4C195.905 59.2 195.138 56.6 195.138 53.6C195.138 49.5333 196.538 46.3 199.338 43.9C202.205 41.5 206.105 39.7 211.038 38.5C215.972 37.3 221.638 36.4667 228.038 36C228.038 32.4667 227.472 29.9667 226.338 28.5C225.205 27.0333 223.005 26.3 219.738 26.3C217.672 26.3 215.838 26.8 214.238 27.8C212.705 28.7333 211.672 30.2 211.138 32.2L198.338 27.6C200.005 24.2667 202.772 21.5 206.638 19.3C210.572 17.1 215.372 16 221.038 16C228.105 16 233.538 17.5667 237.338 20.7C241.138 23.8333 243.038 29.1667 243.038 36.7V47.6C243.038 49.7333 243.105 52.0333 243.238 54.5C243.372 56.9667 243.572 59.3 243.838 61.5C244.105 63.7 244.405 65.5333 244.738 67H230.638L228.838 61C226.972 63.6 224.605 65.4667 221.738 66.6C218.938 67.6667 215.772 68.2 212.238 68.2ZM217.838 57.8C220.838 57.8 223.338 57 225.338 55.4C227.338 53.8 228.338 50.7333 228.338 46.2V45C223.072 45.4667 218.838 46.2 215.638 47.2C212.438 48.1333 210.838 49.9 210.838 52.5C210.838 54.1 211.505 55.4 212.838 56.4C214.172 57.3333 215.838 57.8 217.838 57.8Z" fill="#000529"/>
</svg>
